# xmcd
#
# Track frame offsets: 
#        150
#        7573
#        24899
#        36181
#        43800
#        62401
#        88518
#        107856
#        127811
#        145079
#        169295
#        175634
#        200556
#        227194
#        258297
#        284266
#
# Disc length: 3958 seconds
#
# Revision: 0
# Processed by: cddbd v1.5.2PL0 Copyright (c) Steve Scherf et al.
# Submitted via: ExactAudioCopyFreeDBPlugin 1.0
#
DISCID=c90f7410
DTITLE=Hyenaz - Critical Magic
DYEAR=2016
DGENRE=Electronic
TTITLE0=We open a portal
TTITLE1=Come together
TTITLE2=We are water flowing to what end
TTITLE3=Centering
TTITLE4=It was not the earth
TTITLE5=What are we traces of
TTITLE6=Octomantic ritual
TTITLE7=Our intention
TTITLE8=Clean and unclean
TTITLE9=Binaries
TTITLE10=What can we dream here
TTITLE11=Oh so bright
TTITLE12=Dong Dae Mun
TTITLE13=Depart the octagon
TTITLE14=Born from death
TTITLE15=Banishing
EXTD=
EXTT0=
EXTT1=
EXTT2=
EXTT3=
EXTT4=
EXTT5=
EXTT6=
EXTT7=
EXTT8=
EXTT9=
EXTT10=
EXTT11=
EXTT12=
EXTT13=
EXTT14=
EXTT15=
PLAYORDER=
